<?xml version="1.0" standalone="no"?>
<!DOCTYPE svg PUBLIC "-//W3C//DTD SVG 20010904//EN"
 "http://www.w3.org/TR/2001/REC-SVG-20010904/DTD/svg10.dtd">
<svg version="1.0" xmlns="http://www.w3.org/2000/svg"
 width="150.000000pt" height="150.000000pt" viewBox="0 0 150.000000 150.000000"
 preserveAspectRatio="xMidYMid meet">
<metadata>
Created by potrace 1.14, written by Peter Selinger 2001-2017
</metadata>
<g transform="translate(0.000000,150.000000) scale(0.100000,-0.100000)"
fill="#000000" stroke="none">
<path d="M655 1460 c-137 -16 -216 -52 -349 -160 -114 -93 -197 -204 -211
-285 -4 -22 -16 -60 -27 -84 -18 -39 -20 -60 -16 -170 3 -78 11 -143 21 -171
9 -25 21 -72 28 -105 15 -75 48 -141 88 -179 17 -17 31 -34 31 -39 0 -4 13
-28 30 -52 27 -39 41 -48 147 -91 240 -96 244 -97 373 -90 108 5 142 12 248
51 56 20 81 36 178 116 93 77 116 103 164 190 19 34 51 80 71 103 46 53 59 92
59 180 0 78 -22 227 -39 266 -6 14 -17 60 -26 104 -15 75 -52 146 -77 146 -5
0 -62 51 -127 113 -110 107 -121 115 -186 135 -83 25 -260 35 -380 22z m346
-101 c61 -19 75 -28 176 -127 61 -59 120 -114 131 -122 16 -11 26 -39 41 -113
11 -53 25 -105 30 -115 15 -28 35 -213 27 -253 -4 -21 -30 -69 -61 -110 -30
-41 -68 -100 -85 -131 -25 -46 -51 -73 -128 -133 -55 -43 -114 -80 -137 -86
-22 -6 -44 -14 -50 -18 -20 -15 -92 -30 -170 -37 -92 -7 -131 2 -329 83 -103
42 -121 53 -137 82 -10 19 -32 48 -48 65 -35 36 -64 100 -81 176 -6 30 -18 75
-27 100 -8 25 -17 88 -20 140 -5 81 -2 102 15 140 10 25 23 62 26 83 22 122
208 305 372 366 113 43 328 47 455 10z"/>
<path d="M638 1223 c-27 -2 -48 -8 -48 -14 0 -5 -9 -9 -20 -9 -10 0 -35 -8
-54 -17 -30 -14 -38 -25 -51 -69 -8 -28 -21 -54 -29 -57 -24 -9 -51 -77 -39
-96 9 -15 -5 -51 -27 -71 -3 -3 -20 -31 -38 -62 -34 -61 -40 -96 -19 -102 60
-16 72 -23 69 -41 -2 -10 -12 -25 -23 -34 -12 -10 -24 -39 -31 -77 -14 -80 1
-120 52 -134 45 -13 90 -13 90 0 0 6 11 10 24 10 13 0 27 6 29 13 3 6 6 3 6
-9 1 -12 -9 -26 -23 -33 -24 -13 -62 -104 -50 -122 3 -5 18 -9 34 -9 15 0 30
-5 32 -12 6 -16 265 -18 276 -3 10 15 136 34 285 41 97 5 127 10 127 21 0 7
-17 20 -37 28 -22 9 -45 28 -55 45 -12 21 -25 30 -42 30 -18 0 -25 6 -28 23
-2 17 -11 23 -35 25 -30 3 -31 6 -35 50 -1 26 -1 71 2 101 5 51 7 56 45 76 21
13 41 29 44 36 2 7 13 20 24 29 28 23 35 132 13 199 -9 27 -16 59 -16 70 0 12
-4 21 -10 21 -5 0 -10 8 -10 17 0 35 -43 80 -94 98 -28 10 -54 22 -57 27 -7
10 -207 18 -281 11z"/>
</g>
</svg>
